<svg width="28" height="29" viewBox="0 0 28 29" fill="none" xmlns="http://www.w3.org/2000/svg">
<path d="M18.6666 9.89197C20.5231 9.89197 22.3036 10.6295 23.6164 11.9422C24.9291 13.255 25.6666 15.0355 25.6666 16.892V25.0586H21V16.892C21 16.2731 20.7541 15.6796 20.3165 15.2421C19.879 14.8045 19.2855 14.5586 18.6666 14.5586C18.0478 14.5586 17.4543 14.8045 17.0167 15.2421C16.5791 15.6796 16.3333 16.2731 16.3333 16.892V25.0586H11.6666V16.892C11.6666 15.0355 12.4041 13.255 13.7169 11.9422C15.0296 10.6295 16.8101 9.89197 18.6666 9.89197V9.89197Z" stroke="#0072BC" stroke-width="1.6" stroke-linecap="round" stroke-linejoin="round"/>
<path d="M7.00004 11.0586H2.33337V25.0586H7.00004V11.0586Z" stroke="#0072BC" stroke-width="1.6" stroke-linecap="round" stroke-linejoin="round"/>
<path d="M4.66671 7.55863C5.95537 7.55863 7.00004 6.51396 7.00004 5.2253C7.00004 3.93664 5.95537 2.89197 4.66671 2.89197C3.37804 2.89197 2.33337 3.93664 2.33337 5.2253C2.33337 6.51396 3.37804 7.55863 4.66671 7.55863Z" stroke="#0072BC" stroke-width="1.6" stroke-linecap="round" stroke-linejoin="round"/>
</svg>
