<svg width="28" height="29" viewBox="0 0 28 29" fill="none" xmlns="http://www.w3.org/2000/svg">
<path d="M25.6667 20.2986V23.7986C25.668 24.1235 25.6014 24.4452 25.4713 24.7429C25.3411 25.0406 25.1502 25.3078 24.9108 25.5275C24.6713 25.7471 24.3887 25.9144 24.0809 26.0184C23.7731 26.1225 23.4469 26.1612 23.1233 26.132C19.5333 25.7419 16.0848 24.5151 13.055 22.5503C10.2361 20.7591 7.84623 18.3692 6.055 15.5503C4.08331 12.5067 2.85629 9.04145 2.47334 5.43529C2.44418 5.11267 2.48252 4.78751 2.58592 4.48052C2.68932 4.17353 2.8555 3.89143 3.0739 3.65218C3.29229 3.41294 3.55811 3.22179 3.85443 3.0909C4.15074 2.96002 4.47107 2.89226 4.795 2.89196H8.295C8.8612 2.88639 9.4101 3.08688 9.83939 3.45608C10.2687 3.82528 10.5491 4.33798 10.6283 4.89863C10.7761 6.0187 11.05 7.11847 11.445 8.17696C11.602 8.59454 11.6359 9.04836 11.5429 9.48465C11.4498 9.92095 11.2337 10.3214 10.92 10.6386L9.43834 12.1203C11.0992 15.0411 13.5175 17.4595 16.4383 19.1203L17.92 17.6386C18.2372 17.325 18.6377 17.1088 19.074 17.0157C19.5103 16.9227 19.9641 16.9567 20.3817 17.1136C21.4402 17.5086 22.5399 17.7826 23.66 17.9303C24.2267 18.0102 24.7443 18.2957 25.1143 18.7324C25.4843 19.169 25.6809 19.7265 25.6667 20.2986Z" stroke="#0072BC" stroke-width="1.6" stroke-linecap="round" stroke-linejoin="round"/>
</svg>
