<svg width="349" height="401" viewBox="0 0 349 401" fill="none" xmlns="http://www.w3.org/2000/svg">
<path opacity="0.05" fill-rule="evenodd" clip-rule="evenodd" d="M172.734 75.5274C172.734 127.886 130.29 170.33 77.9313 170.33C50.8286 170.33 26.3823 158.957 9.10438 140.723C3.18851 159.616 0 179.715 0 200.558C0 220.414 2.89337 239.594 8.28148 257.699C25.6015 238.952 50.3955 227.212 77.9313 227.212C130.29 227.212 172.734 269.657 172.734 322.015C172.734 349.722 160.848 374.654 141.897 391.988C160.284 397.561 179.792 400.558 200 400.558C220.869 400.558 240.992 397.362 259.906 391.432C241.305 374.123 229.67 349.428 229.67 322.015C229.67 269.657 272.115 227.212 324.473 227.212C351.049 227.212 375.07 238.147 392.284 255.763C397.309 238.229 400 219.708 400 200.558C400 180.403 397.019 160.945 391.473 142.599C374.32 159.734 350.634 170.33 324.473 170.33C272.115 170.33 229.67 127.886 229.67 75.5274C229.67 49.5192 240.143 25.9572 257.102 8.82853C239.008 3.44775 219.841 0.558472 200 0.558472C180.838 0.558472 162.305 3.25336 144.76 8.28481C162.038 25.4569 172.734 49.2429 172.734 75.5274ZM223.226 207.914C223.96 205.593 243.317 200.559 243.317 200.559C243.317 200.559 223.96 195.525 223.226 193.204C222.635 191.335 221.824 189.564 220.825 187.92C219.782 186.206 223.433 176.907 223.433 176.907C223.433 176.907 213.819 180.381 211.912 179.31C210.237 178.369 208.439 177.62 206.548 177.093C204.465 176.513 200 157.243 200 157.243C200 157.243 195.536 176.513 193.453 177.093C191.324 177.686 189.312 178.561 187.461 179.675C185.797 180.676 176.568 176.907 176.568 176.907C176.568 176.907 180.219 186.206 179.176 187.92C178.177 189.564 177.366 191.335 176.775 193.204C176.041 195.525 156.684 200.559 156.684 200.559C156.684 200.559 176.041 205.593 176.775 207.914C177.366 209.782 178.177 211.554 179.176 213.197C180.219 214.912 176.568 224.211 176.568 224.211C176.568 224.211 186.182 220.737 188.089 221.808C189.764 222.749 191.562 223.498 193.453 224.024C195.536 224.605 200 243.875 200 243.875C200 243.875 204.465 224.605 206.548 224.024C208.439 223.498 210.237 222.749 211.912 221.808C213.819 220.737 223.433 224.211 223.433 224.211C223.433 224.211 219.782 214.912 220.825 213.197C221.824 211.554 222.635 209.782 223.226 207.914Z" fill="black"/>
</svg>
