<svg width="28" height="29" viewBox="0 0 28 29" fill="none" xmlns="http://www.w3.org/2000/svg">
<path d="M11.6666 15.7253C12.1677 16.3951 12.8069 16.9493 13.5409 17.3504C14.275 17.7514 15.0867 17.9899 15.9211 18.0497C16.7554 18.1094 17.5928 17.9891 18.3765 17.6967C19.1602 17.4044 19.8719 16.9469 20.4633 16.3553L23.9633 12.8553C25.0259 11.7551 25.6139 10.2816 25.6006 8.75213C25.5873 7.22265 24.9738 5.75957 23.8922 4.67803C22.8107 3.59648 21.3476 2.98299 19.8181 2.9697C18.2887 2.95641 16.8151 3.54438 15.715 4.60697L13.7083 6.60197" stroke="#0072BC" stroke-width="1.6" stroke-linecap="round" stroke-linejoin="round"/>
<path d="M16.3333 13.3919C15.8323 12.7221 15.1931 12.1679 14.459 11.7668C13.725 11.3658 12.9132 11.1273 12.0789 11.0675C11.2446 11.0078 10.4071 11.1281 9.62342 11.4205C8.8397 11.7128 8.12802 12.1703 7.53666 12.7619L4.03666 16.2619C2.97407 17.3621 2.3861 18.8356 2.39939 20.3651C2.41268 21.8946 3.02617 23.3576 4.10771 24.4392C5.18926 25.5207 6.65233 26.1342 8.18182 26.1475C9.7113 26.1608 11.1848 25.5728 12.285 24.5102L14.28 22.5152" stroke="#0072BC" stroke-width="1.6" stroke-linecap="round" stroke-linejoin="round"/>
</svg>
