<svg width="21" height="20" viewBox="0 0 21 20" fill="none" xmlns="http://www.w3.org/2000/svg">
<path d="M15.5 0H5.5C2.73858 0 0.5 2.23858 0.5 5V15C0.5 17.7614 2.73858 20 5.5 20H15.5C18.2614 20 20.5 17.7614 20.5 15V5C20.5 2.23858 18.2614 0 15.5 0Z" fill="white"/>
<path d="M14.5009 9.36981C14.6243 10.2021 14.4822 11.052 14.0947 11.7988C13.7072 12.5456 13.0941 13.1512 12.3426 13.5295C11.591 13.9077 10.7394 14.0394 9.90871 13.9057C9.07805 13.7721 8.31069 13.3799 7.71577 12.785C7.12084 12.1901 6.72866 11.4227 6.595 10.592C6.46133 9.76137 6.59299 8.90971 6.97125 8.15819C7.34952 7.40667 7.95511 6.79355 8.70191 6.40605C9.44871 6.01856 10.2987 5.8764 11.1309 5.99981C11.9799 6.1257 12.7658 6.52128 13.3726 7.12812C13.9795 7.73496 14.375 8.52089 14.5009 9.36981Z" fill="#0072BC" stroke="white" stroke-width="1.2" stroke-linecap="round" stroke-linejoin="round"/>
<path d="M16.0006 4.50037H16.0106" stroke="#0072BC" stroke-width="1.2" stroke-linecap="round" stroke-linejoin="round"/>
</svg>
