<svg width="21" height="20" viewBox="0 0 21 20" fill="none" xmlns="http://www.w3.org/2000/svg">
<path d="M14.7005 6.2998C16.3714 6.2998 17.9738 6.96355 19.1553 8.14503C20.3368 9.32651 21.0005 10.9289 21.0005 12.5998V19.9498H16.8005V12.5998C16.8005 12.0429 16.5793 11.5087 16.1854 11.1149C15.7916 10.7211 15.2575 10.4998 14.7005 10.4998C14.1436 10.4998 13.6094 10.7211 13.2156 11.1149C12.8218 11.5087 12.6005 12.0429 12.6005 12.5998V19.9498H8.40051V12.5998C8.40051 10.9289 9.06426 9.32651 10.2457 8.14503C11.4272 6.96355 13.0296 6.2998 14.7005 6.2998Z" fill="white"/>
<path d="M4.2 7.35095H0V19.951H4.2V7.35095Z" fill="white"/>
<path d="M2.1 4.2C3.2598 4.2 4.2 3.2598 4.2 2.1C4.2 0.940202 3.2598 0 2.1 0C0.940202 0 0 0.940202 0 2.1C0 3.2598 0.940202 4.2 2.1 4.2Z" fill="white"/>
</svg>
