<svg width="28" height="20" viewBox="0 0 28 20" fill="none" xmlns="http://www.w3.org/2000/svg">
<path d="M27.4141 3.07984C27.2629 2.47585 26.955 1.92245 26.5215 1.47553C26.088 1.02862 25.5442 0.704017 24.9451 0.534518C22.7562 1.13785e-07 14.0002 0 14.0002 0C14.0002 0 5.24434 3.79283e-08 3.05536 0.585424C2.45625 0.754923 1.91248 1.07952 1.47897 1.52644C1.04546 1.97335 0.737573 2.52675 0.586396 3.13075C0.185781 5.35225 -0.010182 7.60582 0.00097165 9.86312C-0.0133085 12.1374 0.182667 14.4082 0.586396 16.6464C0.753063 17.2316 1.06785 17.764 1.50035 18.192C1.93285 18.6201 2.46843 18.9293 3.05536 19.0899C5.24434 19.6753 14.0002 19.6753 14.0002 19.6753C14.0002 19.6753 22.7562 19.6753 24.9451 19.0899C25.5442 18.9204 26.088 18.5958 26.5215 18.1489C26.955 17.702 27.2629 17.1486 27.4141 16.5446C27.8116 14.3398 28.0076 12.1034 27.9995 9.86312C28.0138 7.58882 27.8178 5.31807 27.4141 3.07984Z" fill="white"/>
<path d="M11.1361 14.0254L18.4539 9.86375L11.1361 5.70215V14.0254Z" fill="#0072BC"/>
</svg>
