<svg width="258" height="400" viewBox="0 0 258 400" fill="none" xmlns="http://www.w3.org/2000/svg">
<path opacity="0.05" fill-rule="evenodd" clip-rule="evenodd" d="M30.6737 74.9689C30.6737 127.327 -11.771 169.772 -64.1293 169.772C-91.2319 169.772 -115.678 158.399 -132.956 140.165C-138.872 159.058 -142.061 179.156 -142.061 200C-142.061 219.855 -139.167 239.035 -133.779 257.14C-116.459 238.393 -91.6651 226.654 -64.1293 226.654C-11.771 226.654 30.6737 269.098 30.6737 321.457C30.6737 349.164 18.7875 374.095 -0.164032 391.429C18.2236 397.003 37.7316 400 57.9395 400C78.8088 400 98.9316 396.804 117.845 390.874C99.2442 373.565 87.6095 348.869 87.6095 321.457C87.6095 269.098 130.054 226.654 182.412 226.654C208.988 226.654 233.01 237.589 250.223 255.205C255.248 237.67 257.939 219.149 257.939 200C257.939 179.845 254.958 160.386 249.412 142.041C232.259 159.175 208.573 169.772 182.412 169.772C130.054 169.772 87.6095 127.327 87.6095 74.9689C87.6095 48.9608 98.0825 25.3987 115.041 8.27005C96.9474 2.88928 77.7808 0 57.9395 0C38.7772 0 20.2443 2.69489 2.69917 7.72634C19.977 24.8984 30.6737 48.6845 30.6737 74.9689ZM81.1655 207.355C81.8996 205.035 101.256 200 101.256 200C101.256 200 81.8996 194.966 81.1655 192.646C80.5742 190.777 79.7637 189.006 78.764 187.362C77.721 185.647 81.3721 176.349 81.3721 176.349C81.3721 176.349 71.7586 179.823 69.8515 178.751C68.1762 177.81 66.3783 177.061 64.4877 176.535C62.4043 175.955 57.9399 156.684 57.9399 156.684C57.9399 156.684 53.4755 175.955 51.392 176.535C49.263 177.128 47.2515 178.003 45.4003 179.116C43.7363 180.118 34.5077 176.349 34.5077 176.349C34.5077 176.349 38.1587 185.647 37.1158 187.362C36.1161 189.006 35.3055 190.777 34.7142 192.646C33.9801 194.966 14.6235 200 14.6235 200C14.6235 200 33.9801 205.035 34.7142 207.355C35.3055 209.224 36.1161 210.995 37.1158 212.639C38.1587 214.354 34.5077 223.652 34.5077 223.652C34.5077 223.652 44.1212 220.178 46.0282 221.25C47.7035 222.191 49.5015 222.939 51.392 223.466C53.4755 224.046 57.9399 243.317 57.9399 243.317C57.9399 243.317 62.4043 224.046 64.4877 223.466C66.3783 222.939 68.1762 222.191 69.8515 221.25C71.7586 220.178 81.3721 223.652 81.3721 223.652C81.3721 223.652 77.721 214.354 78.764 212.639C79.7637 210.995 80.5742 209.224 81.1655 207.355Z" fill="black"/>
</svg>
