<svg width="18" height="18" viewBox="0 0 18 18" fill="none" xmlns="http://www.w3.org/2000/svg">
<path d="M16.939 12.9791V15.3877C16.9399 15.6113 16.894 15.8327 16.8042 16.0375C16.7145 16.2424 16.5828 16.4263 16.4177 16.5775C16.2526 16.7286 16.0577 16.8437 15.8455 16.9154C15.6332 16.987 15.4083 17.0136 15.1852 16.9935C12.7097 16.725 10.3318 15.8808 8.24258 14.5286C6.29883 13.2959 4.65086 11.6512 3.41572 9.71135C2.05614 7.61679 1.21005 5.23206 0.945983 2.75036C0.925879 2.52834 0.952318 2.30457 1.02362 2.0933C1.09491 1.88203 1.20951 1.6879 1.3601 1.52325C1.51069 1.35861 1.69399 1.22706 1.89831 1.13699C2.10264 1.04691 2.32352 1.00029 2.54689 1.00008H4.96032C5.35073 0.996243 5.72923 1.13422 6.02525 1.3883C6.32127 1.64237 6.51462 1.99521 6.56927 2.38103C6.67113 3.15185 6.86005 3.9087 7.1324 4.63713C7.24064 4.9245 7.26406 5.23682 7.1999 5.53707C7.13574 5.83732 6.98668 6.11292 6.77039 6.33121L5.7487 7.35087C6.89392 9.36092 8.56151 11.0252 10.5756 12.1682L11.5972 11.1485C11.816 10.9326 12.0921 10.7839 12.393 10.7198C12.6938 10.6558 13.0067 10.6792 13.2947 10.7872C14.0246 11.059 14.7829 11.2476 15.5553 11.3492C15.946 11.4042 16.3029 11.6007 16.5581 11.9012C16.8132 12.2017 16.9487 12.5853 16.939 12.9791Z" stroke="white" stroke-width="1.4" stroke-linecap="round" stroke-linejoin="round"/>
</svg>
