<svg width="25" height="20" viewBox="0 0 25 20" fill="none" xmlns="http://www.w3.org/2000/svg">
<path d="M24.2502 0.0109699C23.2056 0.747854 22.0489 1.31145 20.8248 1.68006C20.1678 0.924618 19.2946 0.389179 18.3234 0.146162C17.3521 -0.0968552 16.3297 -0.0357258 15.3943 0.321283C14.459 0.678291 13.6558 1.31395 13.0935 2.1423C12.5312 2.97064 12.2368 3.9517 12.2502 4.95279V6.0437C10.3331 6.09341 8.43345 5.66822 6.72043 4.806C5.00742 3.94378 3.53422 2.6713 2.43206 1.10188C2.43206 1.10188 -1.93157 10.9201 7.8866 15.2837C5.63991 16.8088 2.96351 17.5734 0.250244 17.4655C10.0684 22.9201 22.0684 17.4655 22.0684 4.92006C22.0674 4.61619 22.0382 4.31307 21.9811 4.01461C23.0945 2.9166 23.8802 1.53029 24.2502 0.0109699Z" fill="white"/>
</svg>
