<svg width="41" height="40" viewBox="0 0 41 40" fill="none" xmlns="http://www.w3.org/2000/svg">
<path fill-rule="evenodd" clip-rule="evenodd" d="M17.5037 7.4969C17.5037 12.7327 13.2592 16.9772 8.02338 16.9772C5.3131 16.9772 2.86846 15.8399 1.14067 14.0165C0.549078 15.9058 0.230225 17.9156 0.230225 20C0.230225 21.9856 0.519565 23.9035 1.05838 25.7141C2.79039 23.8393 5.26979 22.6654 8.02338 22.6654C13.2592 22.6654 17.5037 26.9098 17.5037 32.1457C17.5037 34.9164 16.3151 37.4095 14.4199 39.1429C16.2587 39.7003 18.2094 40 20.2302 40C22.3172 40 24.3295 39.6804 26.2208 39.0874C24.3607 37.3565 23.1973 34.8869 23.1973 32.1457C23.1973 26.9098 27.4417 22.6654 32.6776 22.6654C35.3351 22.6654 37.7373 23.7589 39.4586 25.5205C39.9611 23.767 40.2302 21.9149 40.2302 20C40.2302 17.9845 39.9321 16.0386 39.3775 14.2041C37.6622 15.9176 35.2936 16.9772 32.6776 16.9772C27.4417 16.9772 23.1973 12.7327 23.1973 7.4969C23.1973 4.89608 24.2446 2.53988 25.9404 0.827015C24.131 0.288931 22.2144 0 20.2302 0C18.314 0 16.4607 0.269488 14.7062 0.77263C16.434 2.48984 17.5037 4.86845 17.5037 7.4969ZM22.5528 20.7355C22.6262 20.5035 24.5619 20 24.5619 20C24.5619 20 22.6262 19.4966 22.5528 19.2646C22.4937 19.0777 22.4126 18.9006 22.3126 18.7362C22.2083 18.5647 22.5734 17.6349 22.5734 17.6349C22.5734 17.6349 21.6121 17.9823 21.4214 17.8751C21.2539 17.781 21.0741 17.7061 20.885 17.6535C20.6767 17.5955 20.2302 15.6684 20.2302 15.6684C20.2302 15.6684 19.7838 17.5955 19.5754 17.6535C19.3625 17.7128 19.1614 17.8003 18.9763 17.9116C18.8099 18.0118 17.887 17.6349 17.887 17.6349C17.887 17.6349 18.2521 18.5647 18.1478 18.7362C18.0478 18.9006 17.9668 19.0777 17.9077 19.2646C17.8342 19.4966 15.8986 20 15.8986 20C15.8986 20 17.8342 20.5035 17.9077 20.7355C17.9668 20.9224 18.0478 21.0995 18.1478 21.2639C18.2521 21.4354 17.887 22.3652 17.887 22.3652C17.887 22.3652 18.8484 22.0178 19.0391 22.125C19.2066 22.2191 19.3864 22.2939 19.5754 22.3466C19.7838 22.4046 20.2302 24.3317 20.2302 24.3317C20.2302 24.3317 20.6767 22.4046 20.885 22.3466C21.0741 22.2939 21.2539 22.2191 21.4214 22.125C21.6121 22.0178 22.5734 22.3652 22.5734 22.3652C22.5734 22.3652 22.2083 21.4354 22.3126 21.2639C22.4126 21.0995 22.4937 20.9224 22.5528 20.7355Z" fill="white"/>
</svg>
