<svg width="276" height="401" viewBox="0 0 276 401" fill="none" xmlns="http://www.w3.org/2000/svg">
<path opacity="0.05" fill-rule="evenodd" clip-rule="evenodd" d="M172.734 75.4689C172.734 127.827 130.29 170.272 77.9313 170.272C50.8286 170.272 26.3823 158.899 9.10438 140.665C3.18851 159.558 0 179.656 0 200.5C0 220.355 2.89337 239.535 8.28148 257.64C25.6015 238.893 50.3955 227.154 77.9313 227.154C130.29 227.154 172.734 269.598 172.734 321.957C172.734 349.664 160.848 374.595 141.897 391.929C160.284 397.503 179.792 400.5 200 400.5C220.869 400.5 240.992 397.304 259.906 391.374C241.305 374.065 229.67 349.369 229.67 321.957C229.67 269.598 272.115 227.154 324.473 227.154C351.049 227.154 375.07 238.089 392.284 255.705C397.309 238.17 400 219.649 400 200.5C400 180.345 397.019 160.886 391.473 142.541C374.32 159.675 350.634 170.272 324.473 170.272C272.115 170.272 229.67 127.827 229.67 75.4689C229.67 49.4608 240.143 25.8987 257.102 8.77005C239.008 3.38928 219.841 0.5 200 0.5C180.838 0.5 162.305 3.19489 144.76 8.22634C162.038 25.3984 172.734 49.1845 172.734 75.4689ZM223.226 207.855C223.96 205.535 243.317 200.5 243.317 200.5C243.317 200.5 223.96 195.466 223.226 193.146C222.635 191.277 221.824 189.506 220.825 187.862C219.782 186.147 223.433 176.849 223.433 176.849C223.433 176.849 213.819 180.323 211.912 179.251C210.237 178.31 208.439 177.561 206.548 177.035C204.465 176.455 200 157.184 200 157.184C200 157.184 195.536 176.455 193.453 177.035C191.324 177.628 189.312 178.503 187.461 179.616C185.797 180.618 176.568 176.849 176.568 176.849C176.568 176.849 180.219 186.147 179.176 187.862C178.177 189.506 177.366 191.277 176.775 193.146C176.041 195.466 156.684 200.5 156.684 200.5C156.684 200.5 176.041 205.535 176.775 207.855C177.366 209.724 178.177 211.495 179.176 213.139C180.219 214.854 176.568 224.152 176.568 224.152C176.568 224.152 186.182 220.678 188.089 221.75C189.764 222.691 191.562 223.439 193.453 223.966C195.536 224.546 200 243.817 200 243.817C200 243.817 204.465 224.546 206.548 223.966C208.439 223.439 210.237 222.691 211.912 221.75C213.819 220.678 223.433 224.152 223.433 224.152C223.433 224.152 219.782 214.854 220.825 213.139C221.824 211.495 222.635 209.724 223.226 207.855Z" fill="black"/>
</svg>
