<svg width="40" height="40" viewBox="0 0 40 40" fill="none" xmlns="http://www.w3.org/2000/svg">
<path fill-rule="evenodd" clip-rule="evenodd" d="M17.2735 7.4969C17.2735 12.7327 13.029 16.9772 7.79316 16.9772C5.08288 16.9772 2.63823 15.8399 0.910444 14.0165C0.318854 15.9058 0 17.9156 0 20C0 21.9856 0.28934 23.9035 0.828157 25.7141C2.56016 23.8393 5.03956 22.6654 7.79316 22.6654C13.029 22.6654 17.2735 26.9098 17.2735 32.1457C17.2735 34.9164 16.0848 37.4095 14.1897 39.1429C16.0284 39.7003 17.9792 40 20 40C22.0869 40 24.0992 39.6804 25.9906 39.0874C24.1305 37.3565 22.967 34.8869 22.967 32.1457C22.967 26.9098 27.2115 22.6654 32.4473 22.6654C35.1049 22.6654 37.507 23.7589 39.2284 25.5205C39.7309 23.767 40 21.9149 40 20C40 17.9845 39.7019 16.0386 39.1473 14.2041C37.432 15.9176 35.0634 16.9772 32.4473 16.9772C27.2115 16.9772 22.967 12.7327 22.967 7.4969C22.967 4.89608 24.0143 2.53988 25.7102 0.827015C23.9008 0.288931 21.9841 0 20 0C18.0838 0 16.2305 0.269488 14.476 0.77263C16.2038 2.48984 17.2735 4.86845 17.2735 7.4969ZM22.3226 20.7355C22.396 20.5035 24.3316 20 24.3316 20C24.3316 20 22.396 19.4966 22.3226 19.2646C22.2634 19.0777 22.1824 18.9006 22.0824 18.7362C21.9781 18.5647 22.3432 17.6349 22.3432 17.6349C22.3432 17.6349 21.3819 17.9823 21.1912 17.8751C21.0236 17.781 20.8438 17.7061 20.6548 17.6535C20.4464 17.5955 20 15.6684 20 15.6684C20 15.6684 19.5536 17.5955 19.3452 17.6535C19.1323 17.7128 18.9312 17.8003 18.746 17.9116C18.5796 18.0118 17.6568 17.6349 17.6568 17.6349C17.6568 17.6349 18.0219 18.5647 17.9176 18.7362C17.8176 18.9006 17.7366 19.0777 17.6774 19.2646C17.604 19.4966 15.6684 20 15.6684 20C15.6684 20 17.604 20.5035 17.6774 20.7355C17.7366 20.9224 17.8176 21.0995 17.9176 21.2639C18.0219 21.4354 17.6568 22.3652 17.6568 22.3652C17.6568 22.3652 18.6181 22.0178 18.8088 22.125C18.9764 22.2191 19.1562 22.2939 19.3452 22.3466C19.5536 22.4046 20 24.3317 20 24.3317C20 24.3317 20.4464 22.4046 20.6548 22.3466C20.8438 22.2939 21.0236 22.2191 21.1912 22.125C21.3819 22.0178 22.3432 22.3652 22.3432 22.3652C22.3432 22.3652 21.9781 21.4354 22.0824 21.2639C22.1824 21.0995 22.2634 20.9224 22.3226 20.7355Z" fill="#CCCCCC"/>
</svg>
